<mxfile host="app.diagrams.net" modified="2022-02-15T19:26:53.386Z" agent="5.0 (Macintosh)" etag="KyJ8-8UhN2QZ4MzWk_P-" version="16.5.6" type="github">
  <diagram id="k5o2oc6fLNbR87hNRbv-" name="Seite-1">
    <mxGraphModel dx="2505" dy="2034" grid="1" gridSize="10" guides="1" tooltips="1" connect="1" arrows="1" fold="1" page="1" pageScale="1" pageWidth="827" pageHeight="1169" math="0" shadow="0">
      <root>
        <mxCell id="0" />
        <mxCell id="1" parent="0" />
        <mxCell id="sFXTlv9M6nC-xdetFnB8-15" value="" style="rounded=0;whiteSpace=wrap;html=1;shadow=1;glass=0;dashed=1;dashPattern=1 2;sketch=1;fontFamily=Comic Sans MS;fontSize=18;fontColor=#202020;strokeColor=#000066;strokeWidth=2;fillColor=none;" parent="1" vertex="1">
          <mxGeometry x="40" y="-1020" width="880" height="900" as="geometry" />
        </mxCell>
        <mxCell id="sFXTlv9M6nC-xdetFnB8-27" value="192.168.0.0/24" style="whiteSpace=wrap;html=1;rounded=0;arcSize=50;align=center;verticalAlign=top;strokeWidth=1;autosize=1;spacing=4;treeFolding=1;treeMoving=1;newEdgeStyle={&quot;edgeStyle&quot;:&quot;entityRelationEdgeStyle&quot;,&quot;startArrow&quot;:&quot;none&quot;,&quot;endArrow&quot;:&quot;none&quot;,&quot;segment&quot;:10,&quot;curved&quot;:1};shadow=1;glass=0;labelBackgroundColor=none;labelBorderColor=none;sketch=1;fillStyle=hachure;fontFamily=Comic Sans MS;fontSize=16;fontColor=#333333;fillColor=#F1f1f1;fontStyle=1;strokeColor=#666666;labelPosition=center;verticalLabelPosition=bottom;" parent="1" vertex="1">
          <mxGeometry x="80" y="-661" width="800" height="501" as="geometry" />
        </mxCell>
        <mxCell id="ackbEZV_6d3Q8-9Vv2N4-1" value="ProXmox Server (192.168.56.0/24, DMZ)" style="swimlane;rounded=1;shadow=1;sketch=1;fillColor=#fff2cc;strokeColor=#EE0000;strokeWidth=2;fontFamily=Comic Sans MS;fontSize=20;startSize=45;fontStyle=1;labelPosition=center;verticalLabelPosition=middle;align=center;verticalAlign=middle;swimlaneFillColor=default;" parent="1" vertex="1">
          <mxGeometry x="80" y="-1000" width="800" height="320" as="geometry" />
        </mxCell>
        <mxCell id="sFXTlv9M6nC-xdetFnB8-11" value="&lt;br style=&quot;font-size: 22px;&quot;&gt;&lt;br style=&quot;font-size: 22px;&quot;&gt;&lt;br style=&quot;font-size: 22px;&quot;&gt;&lt;br style=&quot;font-size: 22px;&quot;&gt;DHCP" style="rounded=1;whiteSpace=wrap;html=1;shadow=1;glass=0;dashed=1;dashPattern=1 2;sketch=1;fontFamily=Comic Sans MS;fontSize=22;strokeWidth=2;fillColor=none;verticalAlign=bottom;labelPosition=center;verticalLabelPosition=top;align=center;" parent="ackbEZV_6d3Q8-9Vv2N4-1" vertex="1">
          <mxGeometry x="280" y="80" width="490" height="220" as="geometry" />
        </mxCell>
        <mxCell id="sFXTlv9M6nC-xdetFnB8-1" value="&lt;font style=&quot;font-size: 18px&quot;&gt;RDP/RFP-Proxy&lt;br&gt;(Guacamole)&lt;br style=&quot;font-size: 18px&quot;&gt;&lt;/font&gt;" style="rounded=1;whiteSpace=wrap;html=1;shadow=1;glass=0;sketch=1;strokeColor=#82b366;fontFamily=Comic Sans MS;fontSize=18;fillColor=#d5e8d4;" parent="ackbEZV_6d3Q8-9Vv2N4-1" vertex="1">
          <mxGeometry x="300" y="100" width="200" height="75" as="geometry" />
        </mxCell>
        <mxCell id="sFXTlv9M6nC-xdetFnB8-2" value="&lt;font style=&quot;font-size: 18px&quot;&gt;Reverse-Proxy&lt;br&gt;(NginX)&lt;br style=&quot;font-size: 18px&quot;&gt;&lt;/font&gt;" style="rounded=1;whiteSpace=wrap;html=1;shadow=1;glass=0;sketch=1;strokeColor=#2D7600;fontFamily=Comic Sans MS;fontSize=18;fillColor=#60a917;fontColor=#202020;" parent="ackbEZV_6d3Q8-9Vv2N4-1" vertex="1">
          <mxGeometry x="540" y="100" width="200" height="75" as="geometry" />
        </mxCell>
        <mxCell id="sFXTlv9M6nC-xdetFnB8-69" value="&lt;font style=&quot;font-size: 21px;&quot;&gt;Optionale Module&lt;/font&gt;" style="rounded=1;whiteSpace=wrap;html=1;shadow=1;glass=0;labelBackgroundColor=none;labelBorderColor=none;sketch=1;fillStyle=hachure;fontFamily=Comic Sans MS;fontSize=21;strokeColor=#666666;strokeWidth=4;fillColor=#f5f5f5;fontColor=#333333;labelPosition=center;verticalLabelPosition=top;align=center;verticalAlign=bottom;" parent="ackbEZV_6d3Q8-9Vv2N4-1" vertex="1">
          <mxGeometry x="30" y="80" width="230" height="220" as="geometry" />
        </mxCell>
        <mxCell id="sFXTlv9M6nC-xdetFnB8-6" value="&lt;font style=&quot;font-size: 18px&quot;&gt;Firewall&amp;nbsp;(OPNSense)&lt;br style=&quot;font-size: 18px&quot;&gt;&lt;/font&gt;" style="rounded=1;whiteSpace=wrap;html=1;shadow=1;glass=0;sketch=1;strokeColor=#BD7000;fontFamily=Comic Sans MS;fontSize=18;fillColor=#f0a30a;fontColor=#000000;" parent="ackbEZV_6d3Q8-9Vv2N4-1" vertex="1">
          <mxGeometry x="300" y="210" width="440" height="60" as="geometry" />
        </mxCell>
        <mxCell id="sFXTlv9M6nC-xdetFnB8-12" value="&lt;font color=&quot;#202020&quot;&gt;NextCloud/&lt;br&gt;Opencloud&lt;br&gt;&lt;/font&gt;" style="ellipse;shape=cloud;whiteSpace=wrap;html=1;shadow=1;glass=0;dashed=1;dashPattern=1 2;sketch=1;fontFamily=Comic Sans MS;fontSize=18;strokeColor=#006EAF;strokeWidth=2;fillColor=#1ba1e2;fontColor=#ffffff;" parent="ackbEZV_6d3Q8-9Vv2N4-1" vertex="1">
          <mxGeometry x="40" y="90" width="176" height="110" as="geometry" />
        </mxCell>
        <mxCell id="sFXTlv9M6nC-xdetFnB8-68" value="&lt;font style=&quot;font-size: 48px&quot; color=&quot;#f1f1f1&quot;&gt;W&lt;/font&gt;" style="ellipse;whiteSpace=wrap;html=1;aspect=fixed;rounded=0;shadow=1;glass=0;labelBackgroundColor=none;labelBorderColor=none;sketch=1;fillStyle=solid;fontFamily=Comic Sans MS;fontSize=18;fontColor=#ffffff;strokeColor=#006EAF;strokeWidth=4;fillColor=#1ba1e2;" parent="ackbEZV_6d3Q8-9Vv2N4-1" vertex="1">
          <mxGeometry x="150" y="195" width="90" height="90" as="geometry" />
        </mxCell>
        <mxCell id="ackbEZV_6d3Q8-9Vv2N4-2" value="&lt;font face=&quot;Comic Sans MS&quot; size=&quot;1&quot;&gt;&lt;b style=&quot;font-size: 20px&quot;&gt;Interwebs&lt;/b&gt;&lt;/font&gt;" style="ellipse;shape=cloud;whiteSpace=wrap;html=1;rounded=1;shadow=1;sketch=1;fillColor=#f5f5f5;strokeColor=#666666;fontColor=#333333;strokeWidth=2;dashed=1;dashPattern=1 2;" parent="1" vertex="1">
          <mxGeometry x="1000" y="-1120" width="585" height="390" as="geometry" />
        </mxCell>
        <mxCell id="sFXTlv9M6nC-xdetFnB8-16" value="&lt;font style=&quot;font-size: 18px;&quot;&gt;Kunden-Netzwerk&lt;span style=&quot;font-weight: normal; font-size: 18px;&quot;&gt;&lt;br style=&quot;font-size: 18px;&quot;&gt;(Schule)&lt;/span&gt;&lt;br style=&quot;font-size: 18px;&quot;&gt;&lt;/font&gt;" style="text;html=1;strokeColor=none;fillColor=none;align=center;verticalAlign=middle;whiteSpace=wrap;rounded=0;shadow=1;glass=0;dashed=1;dashPattern=1 2;sketch=1;fontFamily=Comic Sans MS;fontSize=18;fontColor=#202020;fontStyle=1" parent="1" vertex="1">
          <mxGeometry x="405" y="-650" width="200" height="68" as="geometry" />
        </mxCell>
        <mxCell id="sFXTlv9M6nC-xdetFnB8-18" value="&lt;h1&gt;Berufsschule als Kunde&lt;/h1&gt;&lt;p&gt;Firmenkunde mit eigener IT-Infrastruktur&lt;/p&gt;" style="text;html=1;strokeColor=none;fillColor=none;spacing=5;spacingTop=-10;whiteSpace=wrap;overflow=hidden;rounded=0;shadow=0;glass=0;dashed=1;dashPattern=1 2;sketch=1;fontFamily=Comic Sans MS;fontSize=20;fontColor=#202020;verticalAlign=middle;labelBorderColor=none;labelBackgroundColor=none;" parent="1" vertex="1">
          <mxGeometry x="40" y="-1160" width="490" height="130" as="geometry" />
        </mxCell>
        <mxCell id="sFXTlv9M6nC-xdetFnB8-19" value="&lt;b&gt;&lt;font style=&quot;font-size: 22px ; line-height: 1&quot;&gt;RZ it-S&lt;/font&gt;&lt;/b&gt;" style="rounded=0;whiteSpace=wrap;html=1;shadow=0;glass=0;labelBackgroundColor=none;labelBorderColor=none;sketch=1;fontFamily=Comic Sans MS;fontSize=20;strokeWidth=2;labelPosition=center;verticalLabelPosition=middle;align=center;verticalAlign=top;fillColor=#dae8fc;strokeColor=#6c8ebf;" parent="1" vertex="1">
          <mxGeometry x="1360" y="-720" width="240" height="380" as="geometry" />
        </mxCell>
        <mxCell id="sFXTlv9M6nC-xdetFnB8-20" value="&lt;font style=&quot;font-size: 18px&quot;&gt;Firewall/VPN&lt;br style=&quot;font-size: 18px&quot;&gt;&lt;/font&gt;" style="rounded=1;whiteSpace=wrap;html=1;shadow=1;glass=0;sketch=1;strokeColor=#BD7000;fontFamily=Comic Sans MS;fontSize=18;fillColor=#f0a30a;fontColor=#000000;labelPosition=center;verticalLabelPosition=top;align=center;verticalAlign=bottom;" parent="1" vertex="1">
          <mxGeometry x="1400" y="-662" width="160" height="40" as="geometry" />
        </mxCell>
        <mxCell id="sFXTlv9M6nC-xdetFnB8-22" value="&lt;font style=&quot;font-size: 18px&quot;&gt;&lt;font color=&quot;#202020&quot;&gt;Reverse-Proxy&lt;/font&gt;&lt;br style=&quot;font-size: 18px&quot;&gt;&lt;/font&gt;" style="rounded=1;whiteSpace=wrap;html=1;shadow=1;glass=0;sketch=1;strokeColor=#2D7600;fontFamily=Comic Sans MS;fontSize=18;fillColor=#60a917;labelPosition=center;verticalLabelPosition=top;align=center;verticalAlign=bottom;fontColor=#ffffff;" parent="1" vertex="1">
          <mxGeometry x="1400" y="-580" width="160" height="200" as="geometry" />
        </mxCell>
        <mxCell id="sFXTlv9M6nC-xdetFnB8-67" style="edgeStyle=orthogonalEdgeStyle;rounded=0;sketch=1;orthogonalLoop=1;jettySize=auto;html=1;shadow=1;fontFamily=Comic Sans MS;fontSize=9;fontColor=#202020;" parent="1" source="sFXTlv9M6nC-xdetFnB8-24" target="sFXTlv9M6nC-xdetFnB8-47" edge="1">
          <mxGeometry relative="1" as="geometry">
            <Array as="points">
              <mxPoint x="180" y="-510" />
              <mxPoint x="360" y="-510" />
              <mxPoint x="360" y="-420" />
            </Array>
          </mxGeometry>
        </mxCell>
        <mxCell id="sFXTlv9M6nC-xdetFnB8-24" value="&lt;p style=&quot;line-height: 1 ; font-size: 13px&quot;&gt;LDPA (Active Directory)&lt;/p&gt;" style="triangle;whiteSpace=wrap;html=1;rounded=0;shadow=1;glass=0;labelBackgroundColor=none;labelBorderColor=none;sketch=1;fontFamily=Comic Sans MS;fontSize=16;strokeColor=#6c8ebf;strokeWidth=2;fillColor=#dae8fc;direction=north;fillStyle=hachure;labelPosition=center;verticalLabelPosition=bottom;align=center;verticalAlign=top;fontStyle=0" parent="1" vertex="1">
          <mxGeometry x="100" y="-640" width="160" height="120" as="geometry" />
        </mxCell>
        <mxCell id="sFXTlv9M6nC-xdetFnB8-25" value="192.168.0.5" style="whiteSpace=wrap;html=1;rounded=1;arcSize=50;align=center;verticalAlign=middle;strokeWidth=1;autosize=1;spacing=4;treeFolding=1;treeMoving=1;newEdgeStyle={&quot;edgeStyle&quot;:&quot;entityRelationEdgeStyle&quot;,&quot;startArrow&quot;:&quot;none&quot;,&quot;endArrow&quot;:&quot;none&quot;,&quot;segment&quot;:10,&quot;curved&quot;:1};shadow=1;glass=0;labelBackgroundColor=none;labelBorderColor=none;sketch=1;fillStyle=hachure;fontFamily=Comic Sans MS;fontSize=13;fontColor=#202020;fillColor=none;" parent="1" vertex="1">
          <mxGeometry x="273.33" y="-622" width="117.33" height="32" as="geometry" />
        </mxCell>
        <mxCell id="sFXTlv9M6nC-xdetFnB8-26" value="" style="edgeStyle=entityRelationEdgeStyle;startArrow=none;endArrow=none;segment=10;curved=1;rounded=0;fontFamily=Comic Sans MS;fontSize=13;fontColor=#202020;exitX=0.406;exitY=0.835;exitDx=0;exitDy=0;exitPerimeter=0;" parent="1" source="sFXTlv9M6nC-xdetFnB8-24" target="sFXTlv9M6nC-xdetFnB8-25" edge="1">
          <mxGeometry relative="1" as="geometry">
            <mxPoint x="540" y="-510" as="sourcePoint" />
          </mxGeometry>
        </mxCell>
        <mxCell id="sFXTlv9M6nC-xdetFnB8-34" value="Verwaltung" style="whiteSpace=wrap;html=1;align=center;verticalAlign=middle;treeFolding=1;treeMoving=1;rounded=1;shadow=1;glass=0;labelBackgroundColor=none;labelBorderColor=none;sketch=1;fillStyle=auto;fontFamily=Comic Sans MS;fontSize=16;strokeColor=#6c8ebf;strokeWidth=2;fillColor=#dae8fc;" parent="1" vertex="1">
          <mxGeometry x="640" y="-272" width="140" height="84" as="geometry" />
        </mxCell>
        <mxCell id="sFXTlv9M6nC-xdetFnB8-35" value="NextCloud" style="whiteSpace=wrap;html=1;align=center;verticalAlign=middle;treeFolding=1;treeMoving=1;rounded=1;shadow=1;glass=0;labelBackgroundColor=none;labelBorderColor=none;sketch=1;fillStyle=hachure;fontFamily=Comic Sans MS;fontSize=16;fontColor=#333333;strokeColor=#666666;strokeWidth=2;fillColor=#f5f5f5;" parent="1" vertex="1">
          <mxGeometry x="483.34000000000003" y="-270" width="133.33" height="80" as="geometry" />
        </mxCell>
        <mxCell id="sFXTlv9M6nC-xdetFnB8-39" value="" style="group" parent="1" vertex="1" connectable="0">
          <mxGeometry x="-140" y="-480.5" width="400" height="520.5" as="geometry" />
        </mxCell>
        <mxCell id="sFXTlv9M6nC-xdetFnB8-45" value="" style="group" parent="sFXTlv9M6nC-xdetFnB8-39" vertex="1" connectable="0">
          <mxGeometry x="275" y="11.166666666666668" width="125" height="509.3333333333333" as="geometry" />
        </mxCell>
        <mxCell id="sFXTlv9M6nC-xdetFnB8-37" value="" style="ellipse;whiteSpace=wrap;html=1;aspect=fixed;rounded=0;shadow=1;glass=0;labelBackgroundColor=none;labelBorderColor=none;sketch=1;fillStyle=hachure;fontFamily=Comic Sans MS;fontSize=14;strokeColor=#82b366;strokeWidth=2;fillColor=#d5e8d4;container=0;" parent="sFXTlv9M6nC-xdetFnB8-45" vertex="1">
          <mxGeometry x="12.5" width="89.33333333333334" height="89.33333333333334" as="geometry" />
        </mxCell>
        <mxCell id="sFXTlv9M6nC-xdetFnB8-38" value="" style="ellipse;whiteSpace=wrap;html=1;rounded=0;shadow=1;glass=0;labelBackgroundColor=none;labelBorderColor=none;sketch=1;fillStyle=hachure;fontFamily=Comic Sans MS;fontSize=14;strokeColor=#82b366;strokeWidth=2;fillColor=#d5e8d4;container=0;" parent="sFXTlv9M6nC-xdetFnB8-45" vertex="1">
          <mxGeometry x="37.5" width="42.5" height="89.33" as="geometry" />
        </mxCell>
        <mxCell id="sFXTlv9M6nC-xdetFnB8-41" value="" style="ellipse;whiteSpace=wrap;html=1;rounded=0;shadow=1;glass=0;labelBackgroundColor=none;labelBorderColor=none;sketch=1;fillStyle=hachure;fontFamily=Comic Sans MS;fontSize=14;strokeColor=#82b366;strokeWidth=2;fillColor=#d5e8d4;container=0;" parent="sFXTlv9M6nC-xdetFnB8-45" vertex="1">
          <mxGeometry x="12.5" y="22.33" width="87.5" height="27.67" as="geometry" />
        </mxCell>
        <mxCell id="sFXTlv9M6nC-xdetFnB8-43" value="&lt;font color=&quot;#202020&quot;&gt;DNS&lt;/font&gt;" style="rounded=1;whiteSpace=wrap;html=1;shadow=1;glass=0;labelBackgroundColor=none;labelBorderColor=none;sketch=1;fillStyle=auto;fontFamily=Comic Sans MS;fontSize=14;strokeWidth=2;fillColor=default;strokeColor=#005700;fontColor=#ffffff;container=0;" parent="sFXTlv9M6nC-xdetFnB8-45" vertex="1">
          <mxGeometry y="32.59" width="110" height="35.33" as="geometry" />
        </mxCell>
        <mxCell id="sFXTlv9M6nC-xdetFnB8-47" value="&lt;font style=&quot;font-size: 18px;&quot;&gt;Firewall&lt;br style=&quot;font-size: 18px;&quot;&gt;&lt;/font&gt;" style="rounded=1;whiteSpace=wrap;html=1;shadow=1;glass=0;sketch=1;strokeColor=#BD7000;fontFamily=Comic Sans MS;fontSize=18;fillColor=#f0a30a;fontColor=#000000;labelPosition=center;verticalLabelPosition=top;align=center;verticalAlign=bottom;fontStyle=0" parent="1" vertex="1">
          <mxGeometry x="800" y="-617" width="60" height="394" as="geometry" />
        </mxCell>
        <mxCell id="sFXTlv9M6nC-xdetFnB8-36" value="&lt;span&gt;NFS für Back-Up&lt;/span&gt;" style="shape=datastore;whiteSpace=wrap;html=1;rounded=0;shadow=1;glass=0;labelBackgroundColor=none;labelBorderColor=none;sketch=1;fillStyle=hachure;fontFamily=Comic Sans MS;fontSize=14;strokeColor=#9673a6;strokeWidth=2;fillColor=#e1d5e7;labelPosition=center;verticalLabelPosition=top;align=center;verticalAlign=bottom;" parent="1" vertex="1">
          <mxGeometry x="354" y="-290" width="75" height="100" as="geometry" />
        </mxCell>
        <mxCell id="sFXTlv9M6nC-xdetFnB8-46" value="Nutzer" style="ellipse;whiteSpace=wrap;html=1;strokeWidth=2;fillWeight=2;hachureGap=8;fillColor=#FFB570;fillStyle=solid;sketch=1;rounded=0;shadow=1;glass=0;labelBackgroundColor=none;labelBorderColor=none;fontFamily=Comic Sans MS;fontSize=14;strokeColor=#36393d;fontStyle=1" parent="1" vertex="1">
          <mxGeometry x="1180" y="-300" width="70" height="70" as="geometry" />
        </mxCell>
        <mxCell id="sFXTlv9M6nC-xdetFnB8-54" value="" style="group;labelPosition=center;verticalLabelPosition=top;align=center;verticalAlign=bottom;" parent="1" vertex="1" connectable="0">
          <mxGeometry x="119.99999999999999" y="-330" width="153.33000000000004" height="151" as="geometry" />
        </mxCell>
        <mxCell id="sFXTlv9M6nC-xdetFnB8-51" value="&lt;p style=&quot;line-height: 1&quot;&gt;An meine Liebsten!&lt;/p&gt;&lt;p style=&quot;line-height: 1&quot;&gt;Liebe Lehrer und Schüler, ich finde Euch alle toll!&lt;/p&gt;&lt;p style=&quot;line-height: 1&quot;&gt;&lt;br&gt;Euer Arthur&lt;/p&gt;" style="rounded=0;whiteSpace=wrap;shadow=1;glass=0;labelBackgroundColor=none;labelBorderColor=none;sketch=1;fillStyle=solid;fontFamily=Comic Sans MS;fontSize=8;strokeWidth=2;align=left;verticalAlign=top;labelPosition=center;verticalLabelPosition=middle;textDirection=ltr;html=1;" parent="sFXTlv9M6nC-xdetFnB8-54" vertex="1">
          <mxGeometry x="36.66999999999996" width="80" height="100" as="geometry" />
        </mxCell>
        <mxCell id="sFXTlv9M6nC-xdetFnB8-48" value="" style="rounded=1;whiteSpace=wrap;html=1;shadow=1;glass=0;labelBackgroundColor=none;labelBorderColor=none;sketch=1;fillStyle=solid;fontFamily=Comic Sans MS;fontSize=18;strokeColor=#A9C4EB;strokeWidth=2;fillColor=#A9C4EB;verticalAlign=top;" parent="sFXTlv9M6nC-xdetFnB8-54" vertex="1">
          <mxGeometry y="60.5" width="153.33" height="69" as="geometry" />
        </mxCell>
        <mxCell id="sFXTlv9M6nC-xdetFnB8-49" value="" style="rounded=1;whiteSpace=wrap;html=1;shadow=0;glass=0;labelBackgroundColor=none;labelBorderColor=none;sketch=1;fillStyle=solid;fontFamily=Comic Sans MS;fontSize=18;strokeColor=#82b366;strokeWidth=2;fillColor=#d5e8d4;" parent="sFXTlv9M6nC-xdetFnB8-54" vertex="1">
          <mxGeometry x="120" y="75.5" width="30" height="10" as="geometry" />
        </mxCell>
        <mxCell id="sFXTlv9M6nC-xdetFnB8-50" value="" style="rounded=1;whiteSpace=wrap;html=1;shadow=0;glass=0;labelBackgroundColor=none;labelBorderColor=none;sketch=1;fillStyle=solid;fontFamily=Comic Sans MS;fontSize=18;strokeColor=#b85450;strokeWidth=2;fillColor=#f8cecc;" parent="sFXTlv9M6nC-xdetFnB8-54" vertex="1">
          <mxGeometry x="120" y="90" width="30" height="10" as="geometry" />
        </mxCell>
        <mxCell id="sFXTlv9M6nC-xdetFnB8-53" value="--------------&lt;br style=&quot;font-size: 9px;&quot;&gt;-------&lt;br style=&quot;font-size: 9px;&quot;&gt;----------&lt;br style=&quot;font-size: 9px;&quot;&gt;&lt;div style=&quot;font-size: 9px;&quot;&gt;&lt;span style=&quot;font-size: 9px;&quot;&gt;------&lt;/span&gt;&lt;/div&gt;" style="rounded=0;whiteSpace=wrap;html=1;shadow=1;glass=0;labelBackgroundColor=none;labelBorderColor=none;sketch=1;fillStyle=solid;fontFamily=Comic Sans MS;fontSize=9;strokeWidth=2;align=left;" parent="sFXTlv9M6nC-xdetFnB8-54" vertex="1">
          <mxGeometry x="36.66999999999996" y="105.5" width="83.33" height="45.5" as="geometry" />
        </mxCell>
        <mxCell id="sFXTlv9M6nC-xdetFnB8-57" value="" style="edgeStyle=orthogonalEdgeStyle;startArrow=none;endArrow=none;rounded=0;targetPortConstraint=eastwest;sourcePortConstraint=northsouth;fontFamily=Comic Sans MS;fontSize=16;fontColor=#202020;entryX=1.005;entryY=0.603;entryDx=0;entryDy=0;sketch=1;shadow=1;entryPerimeter=0;" parent="1" target="sFXTlv9M6nC-xdetFnB8-48" edge="1">
          <mxGeometry relative="1" as="geometry">
            <mxPoint x="800" y="-420" as="sourcePoint" />
            <mxPoint x="490" y="-458.0000000000002" as="targetPoint" />
            <Array as="points">
              <mxPoint x="310" y="-420" />
              <mxPoint x="310" y="-228" />
            </Array>
          </mxGeometry>
        </mxCell>
        <mxCell id="sFXTlv9M6nC-xdetFnB8-59" value="" style="edgeStyle=orthogonalEdgeStyle;startArrow=none;endArrow=none;rounded=0;targetPortConstraint=eastwest;sourcePortConstraint=northsouth;fontFamily=Comic Sans MS;fontSize=16;fontColor=#202020;exitX=1;exitY=0.5;exitDx=0;exitDy=0;entryX=0;entryY=0.5;entryDx=0;entryDy=0;sketch=1;shadow=1;" parent="1" source="sFXTlv9M6nC-xdetFnB8-36" target="sFXTlv9M6nC-xdetFnB8-47" edge="1">
          <mxGeometry relative="1" as="geometry">
            <mxPoint x="510" y="-379.99833333333316" as="sourcePoint" />
            <mxPoint x="745" y="-428.92000000000024" as="targetPoint" />
            <Array as="points">
              <mxPoint x="460" y="-240" />
              <mxPoint x="460" y="-420" />
            </Array>
          </mxGeometry>
        </mxCell>
        <mxCell id="sFXTlv9M6nC-xdetFnB8-62" value="" style="edgeStyle=orthogonalEdgeStyle;startArrow=none;endArrow=none;rounded=0;targetPortConstraint=eastwest;sourcePortConstraint=northsouth;fontFamily=Comic Sans MS;fontSize=16;fontColor=#202020;entryX=0;entryY=0.5;entryDx=0;entryDy=0;sketch=1;shadow=1;" parent="1" source="sFXTlv9M6nC-xdetFnB8-35" target="sFXTlv9M6nC-xdetFnB8-47" edge="1">
          <mxGeometry relative="1" as="geometry">
            <mxPoint x="255" y="-409.07833333333315" as="sourcePoint" />
            <mxPoint x="490" y="-458.0000000000002" as="targetPoint" />
            <Array as="points">
              <mxPoint x="550" y="-420" />
            </Array>
          </mxGeometry>
        </mxCell>
        <mxCell id="sFXTlv9M6nC-xdetFnB8-63" value="" style="shape=waypoint;sketch=1;size=6;pointerEvents=1;points=[];fillColor=default;resizable=0;rotatable=0;perimeter=centerPerimeter;snapToPoint=1;fontSize=14;fontFamily=Comic Sans MS;strokeColor=#005700;fontColor=#ffffff;rounded=1;shadow=1;glass=0;labelBackgroundColor=none;labelBorderColor=none;fillStyle=auto;strokeWidth=2;" parent="1" vertex="1">
          <mxGeometry x="360" y="-439.0783333333333" width="40" height="40" as="geometry" />
        </mxCell>
        <mxCell id="sFXTlv9M6nC-xdetFnB8-64" value="" style="edgeStyle=orthogonalEdgeStyle;rounded=0;sketch=1;orthogonalLoop=1;jettySize=auto;html=1;shadow=1;fontFamily=Comic Sans MS;fontSize=9;fontColor=#202020;entryX=0;entryY=0.5;entryDx=0;entryDy=0;" parent="1" source="sFXTlv9M6nC-xdetFnB8-43" target="sFXTlv9M6nC-xdetFnB8-47" edge="1">
          <mxGeometry relative="1" as="geometry" />
        </mxCell>
        <mxCell id="sFXTlv9M6nC-xdetFnB8-65" value="" style="edgeStyle=orthogonalEdgeStyle;startArrow=none;endArrow=none;rounded=0;targetPortConstraint=eastwest;sourcePortConstraint=northsouth;fontFamily=Comic Sans MS;fontSize=16;fontColor=#202020;sketch=1;shadow=1;exitX=0.5;exitY=0;exitDx=0;exitDy=0;" parent="1" source="sFXTlv9M6nC-xdetFnB8-34" target="sFXTlv9M6nC-xdetFnB8-47" edge="1">
          <mxGeometry relative="1" as="geometry">
            <mxPoint x="559.9473684210525" y="-260" as="sourcePoint" />
            <mxPoint x="810" y="-420" as="targetPoint" />
            <Array as="points">
              <mxPoint x="710" y="-420" />
            </Array>
          </mxGeometry>
        </mxCell>
        <mxCell id="sFXTlv9M6nC-xdetFnB8-71" value="&lt;p style=&quot;line-height: 0.2&quot;&gt;&lt;span style=&quot;font-size: 18px&quot;&gt;Guacamole Proxy&lt;br&gt;&lt;/span&gt;&lt;/p&gt;&lt;blockquote style=&quot;margin: 0 0 0 40px ; border: none ; padding: 0px&quot;&gt;&lt;/blockquote&gt;&lt;ul&gt;&lt;li&gt;&lt;span style=&quot;font-size: 18px&quot;&gt;OPNsense VPN&lt;/span&gt;&lt;/li&gt;&lt;li&gt;&lt;span style=&quot;font-size: 18px&quot;&gt;Reverse Proxy&lt;/span&gt;&lt;/li&gt;&lt;/ul&gt;&lt;p&gt;&lt;/p&gt;" style="text;strokeColor=none;fillColor=none;html=1;whiteSpace=wrap;verticalAlign=middle;overflow=hidden;rounded=0;shadow=1;glass=0;labelBackgroundColor=none;labelBorderColor=none;sketch=1;fillStyle=hachure;fontFamily=Comic Sans MS;fontSize=21;fontColor=#202020;" parent="1" vertex="1">
          <mxGeometry x="530" y="-1145" width="220" height="100" as="geometry" />
        </mxCell>
        <mxCell id="sFXTlv9M6nC-xdetFnB8-72" value="&lt;p style=&quot;line-height: 0.2&quot;&gt;&lt;span style=&quot;font-size: 18px&quot;&gt;Optionale Module&lt;br&gt;&lt;/span&gt;&lt;/p&gt;&lt;blockquote style=&quot;margin: 0 0 0 40px ; border: none ; padding: 0px&quot;&gt;&lt;/blockquote&gt;&lt;ul&gt;&lt;li&gt;&lt;span style=&quot;font-size: 18px&quot;&gt;Nextcloud,&lt;/span&gt;&lt;/li&gt;&lt;li&gt;&lt;span style=&quot;font-size: 18px&quot;&gt;Wordpress,&lt;/span&gt;&lt;/li&gt;&lt;li&gt;&lt;span style=&quot;font-size: 18px&quot;&gt;etc.&lt;/span&gt;&lt;/li&gt;&lt;/ul&gt;&lt;p&gt;&lt;/p&gt;" style="text;strokeColor=none;fillColor=none;html=1;whiteSpace=wrap;verticalAlign=middle;overflow=hidden;rounded=0;shadow=1;glass=0;labelBackgroundColor=none;labelBorderColor=none;sketch=1;fillStyle=hachure;fontFamily=Comic Sans MS;fontSize=21;fontColor=#202020;" parent="1" vertex="1">
          <mxGeometry x="80" y="140" width="220" height="100" as="geometry" />
        </mxCell>
        <mxCell id="sFXTlv9M6nC-xdetFnB8-74" value="" style="endArrow=classic;html=1;shadow=1;sketch=1;fontFamily=Comic Sans MS;fontSize=18;fontColor=#202020;curved=1;strokeColor=#EE0000;dashed=1;strokeWidth=3;entryX=0.5;entryY=0;entryDx=0;entryDy=0;startArrow=oval;startFill=1;" parent="1" target="sFXTlv9M6nC-xdetFnB8-22" edge="1">
          <mxGeometry width="50" height="50" relative="1" as="geometry">
            <mxPoint x="590" y="-680" as="sourcePoint" />
            <mxPoint x="910" y="-680" as="targetPoint" />
            <Array as="points">
              <mxPoint x="910" y="-350" />
              <mxPoint x="1320" y="-990" />
            </Array>
          </mxGeometry>
        </mxCell>
        <mxCell id="sFXTlv9M6nC-xdetFnB8-76" value="&lt;span style=&quot;font-size: 14px;&quot;&gt;VPN-Tunnel zum RZ&lt;br style=&quot;font-size: 14px;&quot;&gt;(&quot;Keep-alive&quot;)&lt;br style=&quot;font-size: 14px;&quot;&gt;&lt;/span&gt;" style="whiteSpace=wrap;html=1;rounded=1;arcSize=50;align=center;verticalAlign=middle;strokeWidth=1;autosize=1;spacing=4;treeFolding=1;treeMoving=1;newEdgeStyle={&quot;edgeStyle&quot;:&quot;entityRelationEdgeStyle&quot;,&quot;startArrow&quot;:&quot;none&quot;,&quot;endArrow&quot;:&quot;none&quot;,&quot;segment&quot;:10,&quot;curved&quot;:1};shadow=1;glass=0;labelBackgroundColor=none;labelBorderColor=none;sketch=1;fillStyle=hachure;fontFamily=Comic Sans MS;fontSize=14;fillColor=#FFF4C3;strokeColor=#EE0000;" parent="1" vertex="1">
          <mxGeometry x="960" y="-770" width="170" height="50" as="geometry" />
        </mxCell>
        <mxCell id="sFXTlv9M6nC-xdetFnB8-77" value="" style="edgeStyle=entityRelationEdgeStyle;startArrow=none;endArrow=none;segment=10;curved=1;rounded=0;shadow=1;sketch=1;fontFamily=Comic Sans MS;fontSize=18;fontColor=#202020;exitX=1;exitY=0.5;exitDx=0;exitDy=0;entryX=0;entryY=0.5;entryDx=0;entryDy=0;strokeWidth=2;" parent="1" source="ackbEZV_6d3Q8-9Vv2N4-1" target="sFXTlv9M6nC-xdetFnB8-76" edge="1">
          <mxGeometry relative="1" as="geometry">
            <mxPoint x="960" y="-560" as="sourcePoint" />
            <mxPoint x="1005" y="-730" as="targetPoint" />
          </mxGeometry>
        </mxCell>
        <mxCell id="sFXTlv9M6nC-xdetFnB8-78" value="" style="curved=1;endArrow=classic;html=1;shadow=1;dashed=1;sketch=1;fontFamily=Comic Sans MS;fontSize=14;fontColor=#202020;strokeColor=#b85450;strokeWidth=2;fillColor=#f8cecc;exitX=1;exitY=0;exitDx=0;exitDy=0;entryX=0.5;entryY=1;entryDx=0;entryDy=0;" parent="1" source="sFXTlv9M6nC-xdetFnB8-46" target="sFXTlv9M6nC-xdetFnB8-1" edge="1">
          <mxGeometry width="50" height="50" relative="1" as="geometry">
            <mxPoint x="980" y="-520" as="sourcePoint" />
            <mxPoint x="1030" y="-570" as="targetPoint" />
            <Array as="points">
              <mxPoint x="1540" y="-430" />
              <mxPoint x="1330" y="-790" />
              <mxPoint x="700" y="-270" />
            </Array>
          </mxGeometry>
        </mxCell>
        <mxCell id="sFXTlv9M6nC-xdetFnB8-81" value="" style="edgeStyle=orthogonalEdgeStyle;curved=1;sketch=1;orthogonalLoop=1;jettySize=auto;html=1;shadow=1;dashed=1;fontFamily=Comic Sans MS;fontSize=14;fontColor=#202020;strokeColor=#9673a6;strokeWidth=2;fillColor=#e1d5e7;" parent="1" source="sFXTlv9M6nC-xdetFnB8-80" edge="1">
          <mxGeometry relative="1" as="geometry">
            <mxPoint x="1170" y="-640" as="targetPoint" />
          </mxGeometry>
        </mxCell>
        <mxCell id="sFXTlv9M6nC-xdetFnB8-80" value="&lt;span style=&quot;font-size: 14px&quot;&gt;VPN-Tunnel zu Guacamole&lt;br style=&quot;font-size: 14px&quot;&gt;(Remote-Desktop)&lt;br style=&quot;font-size: 14px&quot;&gt;&lt;/span&gt;" style="whiteSpace=wrap;html=1;rounded=1;arcSize=50;align=center;verticalAlign=middle;strokeWidth=2;autosize=1;spacing=4;treeFolding=1;treeMoving=1;newEdgeStyle={&quot;edgeStyle&quot;:&quot;entityRelationEdgeStyle&quot;,&quot;startArrow&quot;:&quot;none&quot;,&quot;endArrow&quot;:&quot;none&quot;,&quot;segment&quot;:10,&quot;curved&quot;:1};shadow=1;glass=0;labelBackgroundColor=none;labelBorderColor=none;sketch=1;fillStyle=hachure;fontFamily=Comic Sans MS;fontSize=14;fillColor=#e1d5e7;strokeColor=#9673a6;" parent="1" vertex="1">
          <mxGeometry x="950" y="-420" width="270" height="64.29" as="geometry" />
        </mxCell>
        <mxCell id="nxMyX4uiqlXMTXJ4AYSO-1" value="" style="edgeStyle=orthogonalEdgeStyle;curved=1;sketch=1;orthogonalLoop=1;jettySize=auto;html=1;shadow=1;dashed=1;fontFamily=Comic Sans MS;fontSize=14;fontColor=#202020;strokeColor=#078822;strokeWidth=2;exitX=0.5;exitY=1;exitDx=0;exitDy=0;entryX=0.5;entryY=1;entryDx=0;entryDy=0;" parent="1" source="sFXTlv9M6nC-xdetFnB8-1" target="sFXTlv9M6nC-xdetFnB8-24" edge="1">
          <mxGeometry relative="1" as="geometry">
            <mxPoint x="1180" y="-630" as="targetPoint" />
            <mxPoint x="1095" y="-410" as="sourcePoint" />
            <Array as="points">
              <mxPoint x="460" y="-825" />
              <mxPoint x="460" y="-640" />
              <mxPoint x="240" y="-640" />
              <mxPoint x="240" y="-580" />
            </Array>
          </mxGeometry>
        </mxCell>
        <mxCell id="nxMyX4uiqlXMTXJ4AYSO-4" style="edgeStyle=orthogonalEdgeStyle;orthogonalLoop=1;jettySize=auto;html=1;exitX=0;exitY=0.25;exitDx=0;exitDy=0;fontSize=13;strokeColor=#3333FF;curved=1;strokeWidth=2;shadow=1;sketch=1;dashed=1;" parent="1" source="sFXTlv9M6nC-xdetFnB8-24" edge="1">
          <mxGeometry relative="1" as="geometry">
            <mxPoint x="290" y="-420" as="targetPoint" />
            <Array as="points">
              <mxPoint x="150" y="-520" />
              <mxPoint x="150" y="-480" />
              <mxPoint x="290" y="-480" />
            </Array>
          </mxGeometry>
        </mxCell>
      </root>
    </mxGraphModel>
  </diagram>
</mxfile>
